<svg xmlns="http://www.w3.org/2000/svg" version="1.1" xmlns:xlink="http://www.w3.org/1999/xlink" xmlns:svgjs="http://svgjs.com/svgjs" width="512" height="512" x="0" y="0" viewBox="0 0 512 512" style="enable-background:new 0 0 512 512" xml:space="preserve" class=""><g><path fill="#6b66d0" d="M151 246v80c0 8.284 6.716 15 15 15h55l20-110h-75c-8.284 0-15 6.716-15 15z" data-original="#6b66d0" class=""></path><path fill="#ff5c5c" d="m271 191 20 150h55c8.284 0 15-6.716 15-15V206c0-8.284-6.716-15-15-15z" data-original="#ff5c5c"></path><path fill="#6b66d0" d="M76.028 239.911H15.002c-9.018 0-15.997-7.9-14.885-16.849C7.11 166.79 33.129 113.633 73.38 73.381 113.632 33.13 166.789 7.11 223.06.117h.003C232.011-.995 239.91 5.983 239.91 15v61.03a14.998 14.998 0 0 1-12.514 14.791c-69.987 11.751-124.824 66.588-136.575 136.574a15 15 0 0 1-14.793 12.516z" data-original="#6b66d0" class=""></path><path fill="#ff5c5c" d="M287.008.117c-8.95-1.112-16.85 5.867-16.85 14.885v61.026a15 15 0 0 0 12.516 14.793c80.587 13.532 139.079 82.594 139.079 164.215 0 34.687-10.745 68.069-31.072 96.54a15 15 0 0 0 1.601 19.322l43.172 43.172c6.378 6.379 16.904 5.725 22.443-1.395l.001-.001C493.292 367.188 512 312.677 512 255.036 512 125.649 415.274 16.058 287.008.117z" data-original="#ff5c5c"></path><path fill="#fff375" d="m414.069 435.451-43.17-43.17a15 15 0 0 0-19.322-1.601c-28.47 20.328-61.853 31.072-96.54 31.072-81.621 0-150.683-58.49-164.215-139.078a15 15 0 0 0-14.792-12.516H15.002c-9.018 0-15.997 7.9-14.885 16.849C16.058 415.274 125.649 512 255.036 512c57.64 0 112.15-18.709 157.638-54.104 7.119-5.541 7.774-16.067 1.395-22.445z" data-original="#fff375" class=""></path><path fill="#ffc178" d="M370.898 392.281a15 15 0 0 0-19.322-1.601c-28.206 20.14-61.234 30.865-95.576 31.063v90.248c57.283-.208 111.44-18.897 156.674-54.095 7.12-5.54 7.774-16.066 1.395-22.445z" data-original="#ffc178" class=""></path><path fill="#fff375" d="M221 166v175h70V166c0-8.284-6.716-15-15-15h-40c-8.284 0-15 6.716-15 15z" data-original="#fff375" class=""></path><path fill="#ffc178" d="M276 151h-20v190h35V166c0-8.284-6.716-15-15-15z" data-original="#ffc178" class=""></path></g></svg>